<?xml version="1.0" encoding="iso-8859-1"?>
<!-- Generator: Adobe Illustrator 19.2.1, SVG Export Plug-In . SVG Version: 6.00 Build 0)  -->
<svg version="1.1" xmlns="http://www.w3.org/2000/svg" xmlns:xlink="http://www.w3.org/1999/xlink" x="0px" y="0px"
	 viewBox="0 0 512 512" style="enable-background:new 0 0 512 512;" xml:space="preserve">
<g id="Layer_34">
	<g>
		<path style="fill:none;" d="M326.503,329.964c8.523-1.232,15.147-8.517,15.252-17.396c0.057-4.756-1.742-8.775-5.066-12.177
			c-3.324-3.403-7.774-4.891-12.532-4.891c-0.072,0-0.146,0-0.218,0c-4.676,0-9.403,1.319-12.753,4.592
			c-3.403,3.324-5.685,7.242-5.685,12v0.03c0,4.755,2.062,9.262,5.386,12.665c2.726,2.791,6.375,4.561,10.164,5.144
			c0.406-0.07,0.894-0.133,1.311-0.171C323.753,329.635,325.193,329.723,326.503,329.964z"/>
		<path style="fill:#42C0C6;" d="M324.513,264.554c-12.74-0.131-24.835,4.679-33.971,13.603c-9.135,8.923-14.249,20.869-14.4,33.638
			c-0.152,12.77,4.679,24.834,13.604,33.97c5.299,5.426,11.67,9.419,18.642,11.811c0.657-4.896,0.662-9.157,0.468-11.551
			c-0.711-7.832,6.205-14.762,13.818-16.085c-3.789-0.583-8.742-2.345-11.468-5.136c-3.324-3.403-5.123-7.896-5.066-12.65v-0.001
			c0.057-4.758,1.962-8.734,5.365-12.059c3.351-3.272,7.758-4.592,12.434-4.592c0.072,0,0.146,0,0.218,0
			c4.758,0,9.208,1.488,12.532,4.891c3.324,3.402,5.123,7.658,5.066,12.414c-0.105,8.879-7.905,16.045-16.428,17.277
			c6.463,1.191,12.79,6.499,13.412,13.358c0.124,1.364,0.529,6.901-0.157,14.455c19.019-6.134,32.922-23.898,33.172-44.956
			c0.152-12.771-4.679-24.842-13.604-33.978C349.226,269.827,337.281,264.705,324.513,264.554z M291.141,313.5h0.01H291.141z"/>
		<path style="fill:#42C0C6;" d="M304.453,109.092c-0.089,8.229-6.778,14.408-14.986,14.408c-0.055,0-0.109,0-0.165,0l-14.777-0.73
			l0.314,76.014c-0.155,10.824-4.546,20.845-12.372,28.486c-7.854,7.668-18.174,11.73-29.035,11.623l-22.001-0.29
			c-22.565-0.268-40.932-18.875-40.932-41.433c0-0.079,0-0.158,0-0.238l0.171-74.715l-15.333-0.185
			c-7.136-0.085-12.915-5.143-14.354-11.836l0.426,86.746c-0.375,37.635,28.841,68.826,65.938,71.439l-0.207-14.464
			c-0.127-8.283,6.498-15.101,14.782-15.228c0.077-0.001,0.157-0.002,0.235-0.002c8.178,0,14.868,6.564,14.994,14.771l0.234,15.282
			c17.28-0.834,33.325-7.897,45.872-20.149c13.588-13.268,21.243-30.973,21.243-49.853c0-0.079,0-0.157,0-0.236l-0.205-90.08
			L304.453,109.092z"/>
		<path style="fill:#3087A6;" d="M323.383,360.165c-5.185-0.062-10.229-0.955-14.995-2.59c-0.996,7.428-3.495,16.321-9.093,22.392
			c-5.355,5.81-13.116,8.633-23.725,8.633c-10.843,0-19.007-2.996-24.959-9.16c-12.805-13.26-12.13-36.953-12.124-37.129
			c0.013-0.294,0.017-0.588,0.012-0.881l-1.114-72.689c-1.149,0.055-2.303,0.083-3.461,0.083c-0.282,0-0.562-0.002-0.844-0.005
			l-21.52-0.254c-1.406-0.017-2.799-0.086-4.185-0.184l1.121,73.17c-0.116,4.762-0.109,37.169,20.358,58.545
			c11.756,12.277,27.473,18.503,46.714,18.503c24.026,0,38.252-10.054,45.955-18.487c12.124-13.273,15.966-30.267,17.055-42.246
			c-4.615,1.488-9.527,2.302-14.623,2.302C323.766,360.168,323.576,360.167,323.383,360.165z"/>
		<path style="fill:#0C6681;" d="M338.738,343.381c-0.622-6.859-5.772-11.81-12.235-13.001c-1.31-0.241-2.67-0.534-4.062-0.408
			c-0.356,0.032-0.705,0.302-1.051,0.427c-0.06-0.013-0.12-0.035-0.18-0.045c-7.614,1.324-13.066,8.045-12.354,15.877
			c0.194,2.394,0.189,6.551-0.468,11.447c4.766,1.635,9.81,2.477,14.995,2.538c0.193,0.002,0.383-0.023,0.575-0.023
			c5.096,0,10.008-0.827,14.623-2.315C339.268,350.324,338.862,344.745,338.738,343.381z"/>
		<path style="fill:#0C6681;" d="M233.081,268.819c0.282,0.003,0.562,0.005,0.844,0.005c1.158,0,2.312-0.028,3.461-0.083
			l-0.234-15.282c-0.126-8.206-6.815-14.771-14.993-14.771c-0.078,0-0.157,0.001-0.234,0.002
			c-8.283,0.127-14.896,6.944-14.769,15.228l0.222,14.464c1.385,0.098,2.778,0.167,4.185,0.184L233.081,268.819z"/>
		<path style="fill:#3087A6;" d="M156.031,93.5c0.021,0,0.044,0,0.064,0c8.256,0,14.964,6.329,14.999,14.592l0.061,14.5
			l11.924-0.092c0.061,0,0.121,0,0.182,0c8.201,0,14.897-6.169,14.995-14.393c0.099-8.283-6.537-14.63-14.821-14.729L155.935,93.5
			c-0.061,0-0.121,0-0.182,0c-8.201,0-14.897,5.865-14.995,14.089c-0.014,1.148,0.114,1.897,0.346,2.974l-0.01-2.161
			C141.059,100.118,147.747,94.5,156.031,93.5z"/>
		<path style="fill:#0C6681;" d="M155.58,122.032l15.575,0.185l-0.061-14.125c-0.035-8.263-6.743-14.592-14.999-14.592
			c-0.021,0-0.043,0-0.064,0c-8.284,1-14.972,6.435-14.937,14.719l0.01,2.15C142.544,117.062,148.444,121.947,155.58,122.032z"/>
		<path style="fill:#3087A6;" d="M259.5,93.5c0,0-0.148,0-0.202,0c-8.208,0-14.907,5.876-14.996,14.105
			c-0.09,8.284,6.553,14.705,14.837,14.794l15.387-0.017l-0.061-14.549c-0.034-8.284,6.673-14.567,14.957-14.567"/>
	</g>
	<path style="fill:#0C6681;" d="M290.757,93.5c-0.625,0-1,0-1,0s-0.333,0-0.354,0c-8.284,0-14.973,6.207-14.938,14.491l0.061,15.063
		l14.777,0.445c0.056,0,0.11,0,0.165,0c8.208,0,14.907-6.18,14.996-14.408c0.003-0.298-0.021-0.875-0.035-1.169
		c-0.012-0.254-0.017-0.653-0.042-0.904c-0.024-0.249-0.068-0.563-0.104-0.808c-0.037-0.251-0.068-0.54-0.117-0.787
		c-0.049-0.242-0.115-0.495-0.176-0.733c-0.061-0.241-0.115-0.493-0.188-0.73c-0.073-0.236-0.162-0.468-0.246-0.699
		c-0.083-0.228-0.159-0.461-0.252-0.684c-0.095-0.228-0.207-0.447-0.313-0.669c-0.103-0.215-0.2-0.434-0.312-0.644
		c-0.117-0.217-0.249-0.424-0.376-0.634c-0.122-0.202-0.238-0.408-0.369-0.604c-0.136-0.203-0.287-0.396-0.433-0.592
		c-0.141-0.189-0.276-0.383-0.425-0.565c-0.153-0.187-0.32-0.362-0.481-0.542c-0.159-0.177-0.314-0.358-0.481-0.527
		c-0.168-0.169-0.348-0.325-0.524-0.487c-0.178-0.163-0.33-0.081-0.516-0.236C299.074,97.079,294.695,93.5,290.757,93.5z"/>
</g>
<g id="Layer_1">
</g>
</svg>
